<mxfile host="app.diagrams.net" modified="2024-06-10T01:13:36.467Z" agent="Mozilla/5.0 (Windows NT 10.0; Win64; x64) AppleWebKit/537.36 (KHTML, like Gecko) Chrome/123.0.0.0 Safari/537.36 OPR/109.0.0.0" version="24.5.2" etag="LNeSY5VHmFRK1xMb5zAZ" type="github">
  <diagram name="PÃ¡gina-1" id="Ia3Cc2sFgOf9JjpftwZH">
    <mxGraphModel>
      <root>
        <mxCell id="0" />
        <mxCell id="1" parent="0" />
      </root>
    </mxGraphModel>
  </diagram>
</mxfile>
